<?xml version="1.0" encoding="UTF-8"?>
<svg width="1024px" height="1024px" viewBox="0 0 1024 1024" version="1.1" xmlns="http://www.w3.org/2000/svg" xmlns:xlink="http://www.w3.org/1999/xlink">
    <!-- Generator: Sketch 51.1 (57501) - http://www.bohemiancoding.com/sketch -->
    <title>Shape</title>
    <desc>Created with Sketch.</desc>
    <defs></defs>
    <g id="Page-1" stroke="none" stroke-width="1" fill="none" fill-rule="evenodd">
        <path d="M938.688,96 L800,96 L800,32 C800,14.304 785.696,0 768,0 C750.304,0 736,14.304 736,32 L736,96 L544,96 L544,32 C544,14.304 529.664,0 512,0 C494.336,0 480,14.304 480,32 L480,96 L288,96 L288,32 C288,14.304 273.664,0 256,0 C238.336,0 224,14.304 224,32 L224,96 L85.344,96 C38.208,96 0,134.176 0,181.312 L0,938.656 C0,985.792 38.208,1024 85.344,1024 L938.688,1024 C985.824,1024 1024,985.792 1024,938.656 L1024,181.312 C1024,134.176 985.824,96 938.688,96 Z M960,938.656 C960,950.432 950.432,960 938.688,960 L85.344,960 C73.568,960 64,950.432 64,938.656 L64,181.312 C64,169.568 73.568,160 85.344,160 L224,160 L224,224 C224,241.696 238.336,256 256,256 C273.664,256 288,241.696 288,224 L288,160 L480,160 L480,224 C480,241.696 494.336,256 512,256 C529.664,256 544,241.696 544,224 L544,160 L736,160 L736,224 C736,241.696 750.304,256 768,256 C785.696,256 800,241.696 800,224 L800,160 L938.688,160 C950.432,160 960,169.568 960,181.312 L960,938.656 Z M224,384 L352,384 L352,480 L224,480 L224,384 Z M224,544 L352,544 L352,640 L224,640 L224,544 Z M224,704 L352,704 L352,800 L224,800 L224,704 Z M448,704 L576,704 L576,800 L448,800 L448,704 Z M448,544 L576,544 L576,640 L448,640 L448,544 Z M448,384 L576,384 L576,480 L448,480 L448,384 Z M672,704 L800,704 L800,800 L672,800 L672,704 Z M672,544 L800,544 L800,640 L672,640 L672,544 Z M672,384 L800,384 L800,480 L672,480 L672,384 Z" id="Shape" fill="#000000" fill-rule="nonzero"></path>
    </g>
</svg>